<?xml version="1.0" encoding="utf-8"?>
<!-- Generator: Adobe Illustrator 24.1.1, SVG Export Plug-In . SVG Version: 6.00 Build 0)  -->
<svg version="1.1" id="Capa_1" xmlns="http://www.w3.org/2000/svg" xmlns:xlink="http://www.w3.org/1999/xlink" x="0px" y="0px"
	 viewBox="0 0 85.21 31.56" style="enable-background:new 0 0 85.21 31.56;" xml:space="preserve">
<style type="text/css">
	.st0{fill:#344F8B;}
	.st1{fill:none;stroke:#441A7B;stroke-miterlimit:10;}
	.st2{fill:#FDFEFE;}
	.st3{fill:#FD3D27;}
	.st4{fill:#01A343;}
	.st5{fill:#027DEE;}
	.st6{fill:#FDB502;}
	.st7{fill:#399BF4;}
	.st8{fill:#FFFFFF;}
	.st9{fill:#441A7B;}
	.st10{fill:#36DE94;}
	.st11{fill:#D8D8D8;}
	.st12{fill:none;stroke:#787878;stroke-miterlimit:10;}
	.st13{fill:none;stroke:#DDDDDD;stroke-miterlimit:10;}
	.st14{opacity:0.8;}
	.st15{fill:none;stroke:#36DE94;stroke-miterlimit:10;}
</style>
<g>
	<path class="st10" d="M70.37,0c-7.79,0-14.16,6-14.78,13.62H29.19c-2.94,0-5.34,2.39-5.34,5.33v1.13c0,1.57-1.28,2.84-2.84,2.84
		h-5.66c-0.45-3.82-3.7-6.79-7.64-6.79c-4.25,0-7.7,3.45-7.7,7.7c0,4.25,3.45,7.7,7.7,7.7c3.71,0,6.81-2.63,7.54-6.13h5.77
		c2.94,0,5.33-2.39,5.33-5.33v-1.13c0-1.57,1.28-2.84,2.84-2.84h26.4c0.65,7.6,7.01,13.57,14.78,13.57c8.2,0,14.84-6.65,14.84-14.84
		C85.21,6.65,78.56,0,70.37,0z M7.7,26.74c-1.59,0-2.89-1.29-2.89-2.89c0-1.6,1.29-2.89,2.89-2.89s2.89,1.29,2.89,2.89
		C10.59,25.45,9.3,26.74,7.7,26.74z M70.37,27.14c-6.79,0-12.3-5.51-12.3-12.3c0-6.79,5.51-12.3,12.3-12.3s12.3,5.51,12.3,12.3
		C82.66,21.64,77.16,27.14,70.37,27.14z"/>
	<path class="st10" d="M70.89,20.83h-1.07c-0.31,0-0.58,0.11-0.81,0.34c-0.22,0.23-0.34,0.5-0.35,0.81v0.97
		c0,0.31,0.11,0.58,0.33,0.8c0.22,0.22,0.49,0.33,0.8,0.33h1.13c0.31,0,0.58-0.11,0.8-0.33s0.33-0.49,0.33-0.8v-0.99
		c0-0.3-0.11-0.57-0.34-0.79C71.47,20.94,71.2,20.83,70.89,20.83z"/>
	<path class="st10" d="M70.94,6.27h-1.13c-0.31,0-0.58,0.11-0.81,0.34c-0.23,0.22-0.33,0.49-0.32,0.79l0.55,8.76
		c0.02,0.3,0.13,0.57,0.34,0.79c0.21,0.22,0.48,0.34,0.81,0.34c0.3,0,0.55-0.11,0.76-0.32c0.21-0.21,0.34-0.48,0.36-0.81l0.55-8.74
		c0.02-0.3-0.09-0.56-0.32-0.8C71.53,6.39,71.25,6.27,70.94,6.27z"/>
</g>
</svg>
