<svg id="Capa_1" data-name="Capa 1" xmlns="http://www.w3.org/2000/svg" viewBox="0 0 12.51 12.51"><defs><style>.cls-1{fill:none;stroke:#787878;stroke-miterlimit:10;stroke-width:0.75px;}.cls-2{fill:#787878;}</style></defs><title>Grafica Store</title><circle class="cls-1" cx="6.25" cy="6.25" r="5.88"/><path class="cls-2" d="M7.32,6.25,4.85,8.56a.42.42,0,0,0-.14.32A.43.43,0,0,0,5,9.29a.46.46,0,0,0,.48-.09l2.9-2.71a.33.33,0,0,0,0-.48h0l-.13.14,0,0L8.38,6l-2.9-2.7h0A.46.46,0,0,0,5,3.22a.43.43,0,0,0-.29.41A.43.43,0,0,0,4.85,4ZM5.18,3.64h0l0,0Zm.14-.16-.13.14h0l.15-.16Z"/></svg>