<?xml version="1.0" encoding="utf-8"?>
<!-- Generator: Adobe Illustrator 24.1.1, SVG Export Plug-In . SVG Version: 6.00 Build 0)  -->
<svg version="1.1" id="Capa_1" xmlns="http://www.w3.org/2000/svg" xmlns:xlink="http://www.w3.org/1999/xlink" x="0px" y="0px"
	 viewBox="0 0 50.41 18.56" style="enable-background:new 0 0 50.41 18.56;" xml:space="preserve">
<style type="text/css">
	.st0{fill:#344F8B;}
	.st1{fill:none;stroke:#441A7B;stroke-miterlimit:10;}
	.st2{fill:#FDFEFE;}
	.st3{fill:#FD3D27;}
	.st4{fill:#01A343;}
	.st5{fill:#027DEE;}
	.st6{fill:#FDB502;}
	.st7{fill:#399BF4;}
	.st8{fill:#FFFFFF;}
	.st9{fill:#441A7B;}
	.st10{fill:#36DE94;}
	.st11{fill:#D8D8D8;}
	.st12{fill:none;stroke:#787878;stroke-miterlimit:10;}
	.st13{fill:none;stroke:#DDDDDD;stroke-miterlimit:10;}
	.st14{opacity:0.8;}
	.st15{fill:none;stroke:#36DE94;stroke-miterlimit:10;}
</style>
<g>
	<g>
		<g>
			<g class="st14">
				<g>
					<path class="st10" d="M45.7,8.05c0-2.25-1.82-4.07-4.07-4.07s-4.07,1.82-4.07,4.07c0,0-0.23,3.36,3.53,6.4
						c0.32,0.26,0.78,0.26,1.09,0C45.94,11.41,45.7,8.05,45.7,8.05z"/>
				</g>
				<g>
					<g>
						<circle class="st10" cx="41.63" cy="7.94" r="1.97"/>
					</g>
				</g>
			</g>
			<g>
				<g>
					<g>
						<circle class="st9" cx="41.63" cy="8.78" r="8.78"/>
					</g>
				</g>
				<g>
					<g>
						<path class="st10" d="M45,8.18c0-1.86-1.51-3.37-3.37-3.37c-1.86,0-3.37,1.51-3.37,3.37c0,0-0.19,2.78,2.92,5.29
							c0.26,0.21,0.64,0.21,0.9,0C45.19,10.96,45,8.18,45,8.18z"/>
					</g>
					<g>
						<g>
							<circle class="st9" cx="41.63" cy="8.09" r="1.63"/>
						</g>
					</g>
				</g>
			</g>
		</g>
	</g>
	<g>
		<g>
			<path class="st9" d="M4.56,9.45C2.04,9.45,0,11.49,0,14c0,2.52,2.04,4.56,4.56,4.56c2.52,0,4.56-2.04,4.56-4.56
				C9.12,11.49,7.07,9.45,4.56,9.45z M4.56,15.71c-0.94,0-1.71-0.76-1.71-1.71c0-0.94,0.76-1.71,1.71-1.71
				c0.94,0,1.71,0.76,1.71,1.71C6.27,14.95,5.5,15.71,4.56,15.71z"/>
		</g>
	</g>
	<g>
		<path class="st9" d="M12.43,14.7H8.22v-1h4.21c1.06,0,1.92-0.86,1.92-1.92v-0.67c0-1.61,1.31-2.92,2.92-2.92h16.82v1H17.27
			c-1.06,0-1.92,0.86-1.92,1.92v0.67C15.35,13.39,14.04,14.7,12.43,14.7z"/>
	</g>
</g>
</svg>
