<svg id="Capa_1" data-name="Capa 1" xmlns="http://www.w3.org/2000/svg" viewBox="0 0 22.72 22.76"><defs><style>.cls-1{fill:#fff;}</style></defs><title>VEHICULO</title><path class="cls-1" d="M18.93,0h1.5A2.27,2.27,0,0,1,22.72,2.3c0,1,0,2.05,0,3.07A2.27,2.27,0,0,1,20.46,7.6c-1,0-2,0-3.05,0a2.27,2.27,0,0,1-2.27-2.24c0-1,0-2.05,0-3.08A2.27,2.27,0,0,1,17.05.06a2.69,2.69,0,0,1,.4,0ZM16.66,3.81V5.3a.71.71,0,0,0,.45.71,1.38,1.38,0,0,0,.5.07H20.4a.76.76,0,0,0,.8-.8V2.34a.76.76,0,0,0-.8-.8H17.46a.76.76,0,0,0-.8.8Z"/><path class="cls-1" d="M3.79,22.74c-.55,0-1.09,0-1.63,0A2.27,2.27,0,0,1,0,20.46v-3A2.26,2.26,0,0,1,1.92,15.2a2,2,0,0,1,.35,0h3a2.21,2.21,0,0,1,2,1.16,2.3,2.3,0,0,1,.3,1.15c0,1,0,1.93,0,2.89a2.29,2.29,0,0,1-.8,1.82,2.17,2.17,0,0,1-1.44.55c-.52,0-1,0-1.55,0ZM1.51,19h0c0,.48,0,1,0,1.45a.76.76,0,0,0,.81.81h2.9a.77.77,0,0,0,.83-.83c0-.95,0-1.9,0-2.84a.83.83,0,0,0-.86-.88c-1,0-1.91,0-2.86,0a.78.78,0,0,0-.84.83Z"/><path class="cls-1" d="M0,3.81V2.33A2.27,2.27,0,0,1,2.31,0h3a2.27,2.27,0,0,1,2.28,1.9,2.56,2.56,0,0,1,0,.39V5.06a2.88,2.88,0,0,1-.12,1,2.29,2.29,0,0,1-.79,1.12A2.53,2.53,0,0,1,5,7.61c-.92,0-1.83,0-2.75,0A2.26,2.26,0,0,1,0,5.72,6,6,0,0,1,0,5ZM3.78,6.09H5.25a.77.77,0,0,0,.81-.82c0-1,0-1.93,0-2.89a.81.81,0,0,0-.85-.84c-1,0-1.91,0-2.86,0a.76.76,0,0,0-.84.84c0,1,0,1.93,0,2.89a.77.77,0,0,0,.81.82Z"/><path class="cls-1" d="M10.69,0a9.24,9.24,0,0,1,1.18.1,2.23,2.23,0,0,1,1.75,2.37,2.25,2.25,0,0,1-2.26,2.1.76.76,0,0,0,0,1.52h1.52a.75.75,0,0,1,.68,1.08.72.72,0,0,1-.64.43,17.39,17.39,0,0,1-1.77,0A2.11,2.11,0,0,1,9.27,6.2,2.25,2.25,0,0,1,11,3.09a2.34,2.34,0,0,1,.38,0,.76.76,0,0,0,.77-.76.75.75,0,0,0-.77-.76H9.88a.76.76,0,0,1-.63-.28A.74.74,0,0,1,9.16.47.69.69,0,0,1,9.81,0h.88Z"/><path class="cls-1" d="M22.71,18.29c0,.77,0,1.54,0,2.31a2.23,2.23,0,0,1-1.87,2.1,2.15,2.15,0,0,1-.43,0H15.94a.76.76,0,1,1,0-1.51h4.46a.79.79,0,0,0,.81-.82V16a.76.76,0,1,1,1.52,0v2.34Z"/><path class="cls-1" d="M18.21,9.11h2.23a2.2,2.2,0,0,1,1.85,1,2.26,2.26,0,0,1-1,3.43,2.37,2.37,0,0,1-.69.15c-.58,0-1.17,0-1.76,0a.72.72,0,0,1-.67-.78.76.76,0,0,1,.73-.72h1.44a.79.79,0,0,0,.85-.6.76.76,0,0,0-.77-.91h-4.5a.72.72,0,0,1-.68-.4.71.71,0,0,1,0-.79A.74.74,0,0,1,16,9.11Z"/><path class="cls-1" d="M10.6,15.17h2.26a.75.75,0,0,1,.7,1.07.68.68,0,0,1-.66.44c-.71,0-1.42,0-2.13,0H10.6v.17c0,.7,0,1.4,0,2.11a.76.76,0,0,1-1.51,0c0-.13,0-.27,0-.4V13.85c0-.32,0-.64,0-1a.76.76,0,0,1,1.51,0c0,.7,0,1.41,0,2.11Z"/><path class="cls-1" d="M15.15,17.43a2.27,2.27,0,0,1,4.54,0,2.27,2.27,0,1,1-4.54,0Zm2.26.77a.76.76,0,0,0,.76-.75.76.76,0,1,0-1.51,0A.76.76,0,0,0,17.41,18.2Z"/><path class="cls-1" d="M15,13.69a9.71,9.71,0,0,1-1.21-.11,2.13,2.13,0,0,1-1.5-1.27,2.42,2.42,0,0,1-.21-.92.74.74,0,0,0-.78-.76H9.83a.76.76,0,0,1-.2-1.48.63.63,0,0,1,.19,0c.6,0,1.2,0,1.79,0a2.17,2.17,0,0,1,1.83,1.33,2.35,2.35,0,0,1,.19.91.75.75,0,0,0,.78.76h1.48a.76.76,0,0,1,.73,1,.77.77,0,0,1-.74.52H15Z"/><path class="cls-1" d="M4.61,9.09a8.17,8.17,0,0,1,1.11.07,2.18,2.18,0,0,1,1.75,1.56,2.77,2.77,0,0,1,.1.71c0,.47,0,1,0,1.42a.76.76,0,0,1-.68.8.73.73,0,0,1-.83-.7c0-.5,0-1,0-1.5a.76.76,0,0,0-.83-.82H3.75a.76.76,0,0,1-.2-1.48l.3,0h.76Z"/><path class="cls-1" d="M2.9,13.69a8.77,8.77,0,0,1-1.16-.11A2.17,2.17,0,0,1,0,11.8a3,3,0,0,1,0-.6c0-.47,0-.95,0-1.42a.75.75,0,0,1,.75-.67.73.73,0,0,1,.74.67c0,.49,0,1,0,1.47A.78.78,0,0,0,2,12.1a1.42,1.42,0,0,0,.36,0H3.8a.77.77,0,0,1,.74.65.75.75,0,0,1-.53.83,2.71,2.71,0,0,1-.4,0H2.9Z"/><path class="cls-1" d="M10.68,22.74H9.84A.74.74,0,0,1,9.09,22a.73.73,0,0,1,.76-.75h1.43a.78.78,0,0,0,.84-.84c0-.48,0-1,0-1.45a.75.75,0,0,1,.71-.74.71.71,0,0,1,.78.66,10.43,10.43,0,0,1,0,2.09,2.22,2.22,0,0,1-1.82,1.75c-.35.05-.72,0-1.08.06Z"/><path class="cls-1" d="M17.8,3.82A1.13,1.13,0,1,1,18.94,5,1.12,1.12,0,0,1,17.8,3.82Z"/><path class="cls-1" d="M3.8,17.82a1.14,1.14,0,1,1-1.14,1.1A1.12,1.12,0,0,1,3.8,17.82Z"/><path class="cls-1" d="M4.92,3.83A1.13,1.13,0,1,1,3.84,2.68,1.12,1.12,0,0,1,4.92,3.83Z"/></svg>