<svg id="Capa_1" data-name="Capa 1" xmlns="http://www.w3.org/2000/svg" viewBox="0 0 27.19 20.54"><defs><style>.cls-1{fill:#fff;}</style></defs><title>VEHICULO</title><path class="cls-1" d="M24.72,0H2.47A2.48,2.48,0,0,0,0,2.47v15.6a2.48,2.48,0,0,0,2.47,2.47H24.72a2.48,2.48,0,0,0,2.47-2.47V2.47A2.48,2.48,0,0,0,24.72,0Zm1.39,18.07a1.39,1.39,0,0,1-1.39,1.39H2.47a1.38,1.38,0,0,1-1.38-1.39V2.47A1.37,1.37,0,0,1,2.47,1.09H24.72a1.38,1.38,0,0,1,1.39,1.38Z"/><path class="cls-1" d="M10.75,3.78H2.93v6.85h7.82ZM10,9.91H3.65V4.51H10Z"/><rect class="cls-1" x="3.29" y="12.92" width="4.11" height="1.39"/><rect class="cls-1" x="3.29" y="15.1" width="1.16" height="1.39"/><rect class="cls-1" x="5.35" y="15.1" width="1.16" height="1.39"/><rect class="cls-1" x="7.95" y="15.1" width="1.16" height="1.39"/><rect class="cls-1" x="3.87" y="5.45" width="1.16" height="0.69"/><rect class="cls-1" x="5.03" y="4.76" width="1.16" height="0.69"/><rect class="cls-1" x="6.2" y="5.45" width="1.16" height="0.69"/><polygon class="cls-1" points="8.53 6.07 9.69 6.07 9.69 5.38 8.53 5.38 8.53 4.76 7.37 4.76 7.37 5.45 8.53 5.45 8.53 6.07"/><rect class="cls-1" x="8.53" y="8.22" width="1.16" height="0.69"/><rect class="cls-1" x="8.12" y="7.35" width="1.16" height="0.69"/><polygon class="cls-1" points="5.03 9.61 6.2 9.61 6.2 8.91 5.03 8.91 5.03 8.3 3.87 8.3 3.87 8.99 5.03 8.99 5.03 9.61"/><rect class="cls-1" x="5.42" y="6.51" width="1.16" height="0.69"/><rect class="cls-1" x="4.25" y="7.21" width="1.16" height="0.69"/><rect class="cls-1" x="10.16" y="15.1" width="1.16" height="1.39"/><rect class="cls-1" x="12.06" y="15.1" width="1.16" height="1.39"/><rect class="cls-1" x="9.11" y="12.92" width="4.11" height="1.39"/><path class="cls-1" d="M21.35,11.79a2.8,2.8,0,0,0-1.59.49,2.86,2.86,0,1,0,0,4.73,2.8,2.8,0,0,0,1.59.49,2.86,2.86,0,1,0,0-5.71ZM19.76,16a2.08,2.08,0,0,1,0-2.8,2.11,2.11,0,0,1,0,2.8ZM16,14.64a2.13,2.13,0,0,1,2.13-2.13,2.15,2.15,0,0,1,1,.28,2.79,2.79,0,0,0,0,3.7,2,2,0,0,1-1,.28A2.13,2.13,0,0,1,16,14.64Zm5.32,2.13a2,2,0,0,1-1-.28,2.79,2.79,0,0,0,0-3.7,2.15,2.15,0,0,1,1-.28,2.13,2.13,0,0,1,0,4.26Z"/></svg>