<svg id="Capa_1" data-name="Capa 1" xmlns="http://www.w3.org/2000/svg" viewBox="0 0 23.76 23.76"><defs><style>.cls-1{fill:#fff;}</style></defs><title>VEHICULO</title><path class="cls-1" d="M7.91,3A2.05,2.05,0,0,1,9,1.23a1.91,1.91,0,0,1,2,.07,2,2,0,0,1,3.74,0,1.93,1.93,0,0,1,2-.09A2.09,2.09,0,0,1,17.83,3h5.38a.5.5,0,0,1,.55.54V14.3a.49.49,0,0,1-.55.54H20.79v3.07a.48.48,0,0,1-.35.47.47.47,0,0,1-.55-.19.82.82,0,0,1-.09-.34c0-1,0-1.89,0-2.84v-.16H10.74l.19.05a5.25,5.25,0,0,1,3.81,3.49l.09.26a.49.49,0,0,1-.31.61.49.49,0,0,1-.63-.29c-.1-.24-.18-.49-.29-.72a4.06,4.06,0,0,0-3.19-2.43,5.28,5.28,0,0,0-1.9,0,.51.51,0,0,1-.59-.55c0-1.16.26-2.31.37-3.46,0-.29.08-.58.11-.87a1,1,0,0,0-.9-1,.94.94,0,0,0-1,.92L6.21,13.3c-.08.85-.16,1.7-.25,2.55A2.61,2.61,0,0,0,6.12,17a5.84,5.84,0,0,0,1.21,2c.66.73,1.35,1.44,2,2.15a.8.8,0,0,1,.2.4l.33,1.68a.51.51,0,0,1-.39.58.49.49,0,0,1-.58-.4c-.07-.32-.13-.64-.2-1v0a1.6,1.6,0,0,0-.55-1.06C7.59,20.7,7,20.11,6.5,19.5a6.29,6.29,0,0,1-1.44-2.63,4.1,4.1,0,0,1,0-1.56c0-.15,0-.3,0-.47H.58c-.4,0-.58-.18-.58-.57V3.54A.5.5,0,0,1,.57,3H7.91Zm-1,6,.55,0a1.93,1.93,0,0,1,1.9,2.19c-.08.61-.14,1.21-.21,1.81a.2.2,0,0,0,.11.22A4.95,4.95,0,1,0,7.11,7.6,4.26,4.26,0,0,0,6.94,8.93ZM15.2,4A5.86,5.86,0,0,1,17.81,8.9a5.87,5.87,0,0,1-2.61,4.94h4.62a3.53,3.53,0,0,1,2.94-2.93v-4A3.53,3.53,0,0,1,19.82,4ZM3.93,13.84H5.15c0-.14,0-.27,0-.4.08-.79.17-1.58.24-2.37a2.6,2.6,0,0,1,.38-1.33A.76.76,0,0,0,6,9.21,5.85,5.85,0,0,1,8.08,4.34c.15-.13.31-.24.48-.37H3.92a3.44,3.44,0,0,1-1,1.94A3.57,3.57,0,0,1,1,6.89v4A3.5,3.5,0,0,1,3.93,13.84ZM11.89,3h2c0-.33,0-.64,0-1a.85.85,0,0,0,0-.23,1,1,0,0,0-1-.79,1,1,0,0,0-.9.88C11.86,2.22,11.89,2.59,11.89,3ZM1,13.84H2.91A2.44,2.44,0,0,0,1,11.94Zm21.76,0v-1.9a2.44,2.44,0,0,0-1.91,1.9ZM1,5.87A2.42,2.42,0,0,0,2.9,4H1Zm21.76,0V4H20.85A2.45,2.45,0,0,0,22.76,5.87ZM16.82,3a1,1,0,0,0-1-1,1,1,0,0,0-.94,1Zm-6,0a1,1,0,0,0-.93-1,1,1,0,0,0-1,1Z"/><path class="cls-1" d="M17.8,23.24a.92.92,0,0,1,.09-.23l.9-1.6a.48.48,0,0,1,.49-.26.49.49,0,0,1,.39.74L19.05,23c-.1.18-.2.36-.31.53a.49.49,0,0,1-.56.23A.54.54,0,0,1,17.8,23.24Z"/><path class="cls-1" d="M19.62,19.87a.51.51,0,0,1,.51-.5.5.5,0,0,1,.49.5.51.51,0,0,1-.5.49A.49.49,0,0,1,19.62,19.87Z"/><path class="cls-1" d="M12.37,11.37v.49a.49.49,0,1,1-1,0c0-.15,0-.31,0-.48H10.8a1,1,0,0,1-.24,0,.49.49,0,0,1-.41-.55.48.48,0,0,1,.49-.43h1.47a.49.49,0,0,0,.5-.42.48.48,0,0,0-.49-.57,5.29,5.29,0,0,1-.8,0,1.48,1.48,0,0,1-.06-2.88c.1,0,.13-.07.13-.17a2.54,2.54,0,0,1,0-.39.48.48,0,0,1,.5-.48.47.47,0,0,1,.48.47c0,.17,0,.34,0,.52h.73a.5.5,0,1,1,0,1H11.63a.46.46,0,0,0-.45.31.44.44,0,0,0,.09.51.49.49,0,0,0,.41.17,4.71,4.71,0,0,1,.75,0,1.44,1.44,0,0,1,1.18,1.38,1.48,1.48,0,0,1-1.11,1.5Z"/><path class="cls-1" d="M20.05,8.41h.26a.5.5,0,0,1,0,1,3.62,3.62,0,0,1-.57,0,.48.48,0,0,1-.46-.5.5.5,0,0,1,.47-.48Z"/><path class="cls-1" d="M3.71,9.4H3.42A.5.5,0,0,1,3,8.9a.49.49,0,0,1,.46-.49H4a.49.49,0,0,1,.46.49A.5.5,0,0,1,4,9.4Z"/></svg>